<svg xmlns="http://www.w3.org/2000/svg" width="40" height="40.001" viewBox="0 0 40 40.001">
  <g id="Icon_ionic-logo-linkedin" data-name="Icon ionic-logo-linkedin" transform="translate(0.234 0.44)">
    <path id="Exclusion_1" data-name="Exclusion 1" d="M8889.766,7470.562h-40v-40h40v40Zm-15.142-20.125c2.38,0,2.88,2.116,2.88,3.891v9.647h5.674v-10.308a8.411,8.411,0,0,0-1.874-5.861,6.123,6.123,0,0,0-4.667-1.89,5.772,5.772,0,0,0-5.116,2.869v-2.457h-5.676v17.646h5.676v-10.051a3.708,3.708,0,0,1,.194-1.393A3.116,3.116,0,0,1,8874.624,7450.437Zm-17.859-4.107v17.646h5.676v-17.646Zm3.065-8.77a3.044,3.044,0,0,0-.074,6.088h.043a3.021,3.021,0,0,0,2.239-.887,3.074,3.074,0,0,0,.824-2.156A2.924,2.924,0,0,0,8859.83,7437.559Z" transform="translate(-8850 -7431)" fill="#106eb6"/>
  </g>
</svg>
