<svg xmlns="http://www.w3.org/2000/svg" width="40" height="40.001" viewBox="0 0 40 40.001">
  <path id="icon_-_youtube" data-name="icon - youtube" d="M33,29H-7V-11H33V29ZM13.135,0c-.055,0-5.564,0-9.194.266-.048.005-.1.011-.157.015H3.778a3.624,3.624,0,0,0-2.471,1.1A5.618,5.618,0,0,0,.266,3.986,39.537,39.537,0,0,0,0,8.239v2a39.485,39.485,0,0,0,.265,4.255,5.657,5.657,0,0,0,1.042,2.6,3.877,3.877,0,0,0,2.538,1.074c.149.018.262.032.359.05,2.056.2,8.874.264,8.936.264s5.562-.012,9.2-.273l.147-.015.03,0a3.6,3.6,0,0,0,2.456-1.1,5.632,5.632,0,0,0,1.045-2.607,40.745,40.745,0,0,0,.262-4.252v-2a40,40,0,0,0-.262-4.254,5.627,5.627,0,0,0-1.045-2.6A3.619,3.619,0,0,0,22.5.283H22.5c-.057,0-.11-.01-.157-.015C18.709,0,13.2,0,13.145,0ZM10.427,12.649V5.265l7.1,3.7-7.1,3.679Z" transform="translate(7 11)" fill="#106eb6"/>
</svg>
