<svg id="logo_-_liif" data-name="logo - liif" xmlns="http://www.w3.org/2000/svg" width="76" height="72.995" viewBox="0 0 76 72.995">
  <path id="Path_37" data-name="Path 37" d="M23.12,8.825A5.155,5.155,0,1,1,17.965,3.67,5.155,5.155,0,0,1,23.12,8.825" transform="translate(24.924 7.141)" fill="#4aa45a"/>
  <path id="Path_33" data-name="Path 33" d="M19.41,31.9h9.544V72.966H19.41ZM35.494,8.572h2.74V0H34.2C24.3,0,19.469,7.04,19.469,18.352v5.891h9.544V16.319c0-4.89,1.8-7.718,6.54-7.718" transform="translate(37.766)" fill="#3070bb"/>
  <path id="Path_1994" data-name="Path 1994" d="M25.529,10.83H6.47V51.894h9.544V18.518h9.515V10.83" transform="translate(12.588 21.073)" fill="#97c353"/>
  <path id="Path_1995" data-name="Path 1995" d="M9.544,30.241V13.45H0V28.473C0,39.785,4.89,46.825,14.729,46.825h1.326V37.988c-4.772,0-6.54-2.946-6.54-7.806" transform="translate(0 26.17)" fill="#b8d253"/>
  <path id="Path_1996" data-name="Path 1996" d="M22.484,8.22H12.94V56.972h9.544V15.908H50.822V8.22Z" transform="translate(25.178 15.994)" fill="#4aa45a"/>
  <path id="Path_1997" data-name="Path 1997" d="M16.649,11.347A5.154,5.154,0,1,1,11.405,6.28h.088a5.154,5.154,0,0,1,5.155,5.067" transform="translate(12.337 12.219)" fill="#97c353"/>
</svg>
