<svg xmlns="http://www.w3.org/2000/svg" width="35.997" height="35.997" viewBox="0 0 35.997 35.997">
  <path id="icon_-_youtube" data-name="icon - youtube" d="M36,36H0V0H36V36ZM18.12,9.9c-.05,0-5.007,0-8.273.24l-.141.014H9.7a3.261,3.261,0,0,0-2.223.986,5.056,5.056,0,0,0-.938,2.346A35.579,35.579,0,0,0,6.3,17.313v1.8a35.533,35.533,0,0,0,.238,3.829,5.091,5.091,0,0,0,.938,2.344,3.489,3.489,0,0,0,2.284.966c.134.016.236.029.323.045,1.85.178,7.986.237,8.042.237s5.006-.011,8.277-.245l.132-.014.027,0a3.237,3.237,0,0,0,2.21-.986,5.068,5.068,0,0,0,.94-2.346,36.666,36.666,0,0,0,.236-3.827v-1.8a36,36,0,0,0-.236-3.828,5.064,5.064,0,0,0-.94-2.344,3.256,3.256,0,0,0-2.222-.986h0l-.142-.014c-3.266-.237-8.224-.24-8.273-.24ZM15.682,21.281h0V14.637L22.07,17.97l-6.387,3.311Z" fill="#50befc"/>
</svg>
