<svg id="Icon_ionic-logo-linkedin" data-name="Icon ionic-logo-linkedin" xmlns="http://www.w3.org/2000/svg" width="35.996" height="35.998" viewBox="0 0 35.996 35.998">
  <path id="Exclusion_1" data-name="Exclusion 1" d="M36,36H0V0H36V36ZM22.37,17.887c2.142,0,2.592,1.9,2.592,3.5V30.07h5.106V20.794a7.569,7.569,0,0,0-1.686-5.274,5.51,5.51,0,0,0-4.2-1.7,5.194,5.194,0,0,0-4.6,2.582v-2.21H14.47V30.07h5.108V21.025a3.341,3.341,0,0,1,.175-1.253A2.8,2.8,0,0,1,22.37,17.887ZM6.3,14.191V30.07h5.108V14.191ZM9.057,6.3A2.631,2.631,0,0,0,6.3,9.039,2.626,2.626,0,0,0,8.99,11.777h.039a2.72,2.72,0,0,0,2.015-.8,2.767,2.767,0,0,0,.742-1.94A2.631,2.631,0,0,0,9.057,6.3Z" transform="translate(0 0)" fill="#50befc"/>
</svg>
